<?xml version="1.0" encoding="UTF-8"?>
<svg width="800" height="600" viewBox="0 0 800 600" fill="none" xmlns="http://www.w3.org/2000/svg">
  <rect width="800" height="600" fill="#F3F4F6"/>
  <path d="M400 300C400 355.228 355.228 400 300 400C244.772 400 200 355.228 200 300C200 244.772 244.772 200 300 200C355.228 200 400 244.772 400 300Z" fill="#E5E7EB"/>
  <path d="M400 300C400 355.228 355.228 400 300 400C244.772 400 200 355.228 200 300C200 244.772 244.772 200 300 200C355.228 200 400 244.772 400 300Z" stroke="#9CA3AF" stroke-width="2"/>
  <path d="M300 250C272.386 250 250 272.386 250 300C250 327.614 272.386 350 300 350C327.614 350 350 327.614 350 300C350 272.386 327.614 250 300 250ZM300 333C282.879 333 269 319.121 269 302C269 284.879 282.879 271 300 271C317.121 271 331 284.879 331 302C331 319.121 317.121 333 300 333Z" fill="#9CA3AF"/>
  <path d="M300 267C287.85 267 278 276.85 278 289V293C278 294.105 278.895 295 280 295C281.105 295 282 294.105 282 293V289C282 278.507 290.507 270 301 270C311.493 270 320 278.507 320 289V293C320 294.105 320.895 295 322 295C323.105 295 324 294.105 324 293V289C324 276.85 314.15 267 302 267H300Z" fill="#9CA3AF"/>
  <path d="M400 300C400 355.228 355.228 400 300 400C244.772 400 200 355.228 200 300C200 244.772 244.772 200 300 200C355.228 200 400 244.772 400 300Z" stroke="#9CA3AF" stroke-width="2"/>
  <path d="M400 300C400 355.228 355.228 400 300 400C244.772 400 200 355.228 200 300C200 244.772 244.772 200 300 200C355.228 200 400 244.772 400 300Z" stroke="#9CA3AF" stroke-width="2"/>
  <path d="M400 300C400 355.228 355.228 400 300 400C244.772 400 200 355.228 200 300C200 244.772 244.772 200 300 200C355.228 200 400 244.772 400 300Z" stroke="#9CA3AF" stroke-width="2"/>
  <path d="M400 300C400 355.228 355.228 400 300 400C244.772 400 200 355.228 200 300C200 244.772 244.772 200 300 200C355.228 200 400 244.772 400 300Z" stroke="#9CA3AF" stroke-width="2"/>
</svg>
