<?xml version="1.0" encoding="UTF-8"?>
<svg width="40" height="50" viewBox="0 0 40 50" fill="none" xmlns="http://www.w3.org/2000/svg">
  <path 
    d="M20 0C8.9543 0 0 8.9543 0 20C0 35 20 50 20 50C20 50 40 35 40 20C40 8.9543 31.0457 0 20 0Z" 
    fill="#4F46E5" 
  />
  <path 
    d="M20 10C15.0294 10 11 14.0294 11 19C11 23.9706 15.0294 28 20 28C24.9706 28 29 23.9706 29 19C29 14.0294 24.9706 10 20 10Z" 
    fill="white" 
  />
  <path 
    d="M20 23C22.2091 23 24 21.2091 24 19C24 16.7909 22.2091 15 20 15C17.7909 15 16 16.7909 16 19C16 21.2091 17.7909 23 20 23Z" 
    fill="#4F46E5" 
  />
</svg>
